<?xml version="1.0" encoding="UTF-8" standalone="no"?>
<!DOCTYPE svg PUBLIC "-//W3C//DTD SVG 1.1//EN" "http://www.w3.org/Graphics/SVG/1.1/DTD/svg11.dtd">
<svg width="100%" height="100%" viewBox="0 0 2194 485" version="1.1" xmlns="http://www.w3.org/2000/svg" xmlns:xlink="http://www.w3.org/1999/xlink" xml:space="preserve" xmlns:serif="http://www.serif.com/" style="fill-rule:evenodd;clip-rule:evenodd;stroke-linecap:round;stroke-linejoin:round;stroke-miterlimit:1.5;">
    <g transform="matrix(1,0,0,1,-657.384,-951.922)">
        <g transform="matrix(1,0,0,1,363.634,-38.5952)">
            <g transform="matrix(0.514551,0,0,0.942125,152.694,70.7838)">
                <rect x="278.184" y="978.444" width="807.982" height="510.239" style="fill:white;stroke:black;stroke-width:5.49px;"/>
            </g>
            <g transform="matrix(1,0,0,1,-19.432,-23.3835)">
                <text x="344.672px" y="1081.45px" style="font-family:'Helvetica';font-size:50px;">ggplot2</text>
                <text x="344.672px" y="1131.45px" style="font-family:'Helvetica-Oblique', 'Helvetica';font-style:italic;font-size:33.333px;">Font information</text>
                <text x="344.672px" y="1181.45px" style="font-family:'FiraCode-Regular', 'Fira Code', monospace;font-size:33.333px;">family</text>
                <text x="344.672px" y="1231.45px" style="font-family:'FiraCode-Regular', 'Fira Code', monospace;font-size:33.333px;">fontface</text>
                <g transform="matrix(33.3333,0,0,33.3333,424.672,1281.45)">
                </g>
                <text x="344.672px" y="1281.45px" style="font-family:'FiraCode-Regular', 'Fira Code', monospace;font-size:33.333px;">size</text>
            </g>
            <g transform="matrix(1,0,0,1,0,-1)">
                <path d="M325.24,1122L682.175,1122" style="fill:none;stroke:black;stroke-width:1.25px;"/>
            </g>
            <g transform="matrix(1,0,0,1,0,284.97)">
                <path d="M325.24,1122L682.175,1122" style="fill:none;stroke:black;stroke-width:1.25px;"/>
            </g>
            <g transform="matrix(1,0,0,1,0,-211.333)">
                <text x="325.24px" y="1605.04px" style="font-family:'Helvetica-Oblique', 'Helvetica';font-style:italic;font-size:33.333px;">Function call</text>
                <g transform="matrix(33.3333,0,0,33.3333,545.24,1655.04)">
                </g>
                <text x="325.24px" y="1655.04px" style="font-family:'FiraCode-Regular', 'Fira Code', monospace;font-size:33.333px;">geom_text()</text>
            </g>
        </g>
        <g transform="matrix(1,0,0,1,490.992,-38.5952)">
            <g transform="matrix(0.514551,0,0,0.942125,593.565,70.7838)">
                <rect x="278.184" y="978.444" width="807.982" height="510.239" style="fill:white;stroke:black;stroke-width:5.49px;"/>
            </g>
            <g transform="matrix(1,0,0,1,421.439,-23.3835)">
                <text x="344.672px" y="1081.45px" style="font-family:'Helvetica';font-size:50px;">grid</text>
                <text x="344.672px" y="1131.45px" style="font-family:'Helvetica-Oblique', 'Helvetica';font-style:italic;font-size:33.333px;">Font information</text>
                <text x="344.672px" y="1181.45px" style="font-family:'FiraCode-Regular', 'Fira Code', monospace;font-size:33.333px;">fontfamily</text>
                <text x="344.672px" y="1231.45px" style="font-family:'FiraCode-Regular', 'Fira Code', monospace;font-size:33.333px;">fontface</text>
                <text x="344.672px" y="1281.45px" style="font-family:'FiraCode-Regular', 'Fira Code', monospace;font-size:33.333px;">fontsize</text>
                <g transform="matrix(33.3333,0,0,33.3333,404.672,1331.45)">
                </g>
                <text x="344.672px" y="1331.45px" style="font-family:'FiraCode-Regular', 'Fira Code', monospace;font-size:33.333px;">cex</text>
            </g>
            <g transform="matrix(1,0,0,1,440.871,-1)">
                <path d="M325.24,1122L682.175,1122" style="fill:none;stroke:black;stroke-width:1.25px;"/>
            </g>
            <g transform="matrix(1,0,0,1,440.871,284.97)">
                <path d="M325.24,1122L682.175,1122" style="fill:none;stroke:black;stroke-width:1.25px;"/>
            </g>
            <g transform="matrix(1,0,0,1,440.871,-211.333)">
                <text x="325.24px" y="1605.04px" style="font-family:'Helvetica-Oblique', 'Helvetica';font-style:italic;font-size:33.333px;">Function call</text>
                <g transform="matrix(33.3333,0,0,33.3333,525.24,1655.04)">
                </g>
                <text x="325.24px" y="1655.04px" style="font-family:'FiraCode-Regular', 'Fira Code', monospace;font-size:33.333px;">textGrob()</text>
            </g>
        </g>
        <g transform="matrix(1,0,0,1,611.242,-38.5952)">
            <g transform="matrix(0.556943,0,0,0.942125,1029.75,70.7838)">
                <rect x="278.184" y="978.444" width="807.982" height="510.239" style="fill:white;stroke:black;stroke-width:5.38px;"/>
            </g>
            <g transform="matrix(1,0,0,1,869.45,-23.3835)">
                <text x="344.672px" y="1081.45px" style="font-family:'Helvetica';font-size:50px;">graphics system</text>
                <text x="344.672px" y="1131.45px" style="font-family:'Helvetica-Oblique', 'Helvetica';font-style:italic;font-size:33.333px;">Font information</text>
                <text x="344.672px" y="1181.45px" style="font-family:'FiraCode-Regular', 'Fira Code', monospace;font-size:33.333px;">fontfamily</text>
                <text x="344.672px" y="1231.45px" style="font-family:'FiraCode-Regular', 'Fira Code', monospace;font-size:33.333px;">fontface</text>
                <text x="344.672px" y="1281.45px" style="font-family:'FiraCode-Regular', 'Fira Code', monospace;font-size:33.333px;">ps</text>
                <g transform="matrix(33.3333,0,0,33.3333,404.672,1331.45)">
                </g>
                <text x="344.672px" y="1331.45px" style="font-family:'FiraCode-Regular', 'Fira Code', monospace;font-size:33.333px;">cex</text>
            </g>
            <g transform="matrix(1.09578,0,0,1.09578,857.731,-108.465)">
                <path d="M325.24,1122L682.175,1122" style="fill:none;stroke:black;stroke-width:1.14px;"/>
            </g>
            <g transform="matrix(1.09578,0,0,1,857.731,284.97)">
                <path d="M325.24,1122L682.175,1122" style="fill:none;stroke:black;stroke-width:1.19px;"/>
            </g>
            <g transform="matrix(1,0,0,1,888.882,-211.333)">
                <text x="325.24px" y="1605.04px" style="font-family:'Helvetica-Oblique', 'Helvetica';font-style:italic;font-size:33.333px;">Function call</text>
                <g transform="matrix(33.3333,0,0,33.3333,485.24,1655.04)">
                </g>
                <text x="325.24px" y="1655.04px" style="font-family:'FiraCode-Regular', 'Fira Code', monospace;font-size:33.333px;">GEText()</text>
            </g>
        </g>
        <g transform="matrix(1,0,0,1,765.25,-38.5952)">
            <g transform="matrix(0.556943,0,0,0.942125,1478.22,70.7838)">
                <rect x="278.184" y="978.444" width="807.982" height="510.239" style="fill:white;stroke:black;stroke-width:5.38px;"/>
            </g>
            <g transform="matrix(1,0,0,1,1317.92,-23.3835)">
                <text x="344.672px" y="1081.45px" style="font-family:'Helvetica';font-size:50px;">graphics device</text>
                <text x="344.672px" y="1131.45px" style="font-family:'Helvetica-Oblique', 'Helvetica';font-style:italic;font-size:33.333px;">Font information</text>
                <text x="344.672px" y="1181.45px" style="font-family:'FiraCode-Regular', 'Fira Code', monospace;font-size:33.333px;">fontfamily</text>
                <text x="344.672px" y="1231.45px" style="font-family:'FiraCode-Regular', 'Fira Code', monospace;font-size:33.333px;">fontface</text>
                <text x="344.672px" y="1281.45px" style="font-family:'FiraCode-Regular', 'Fira Code', monospace;font-size:33.333px;">ps</text>
                <g transform="matrix(33.3333,0,0,33.3333,404.672,1331.45)">
                </g>
                <text x="344.672px" y="1331.45px" style="font-family:'FiraCode-Regular', 'Fira Code', monospace;font-size:33.333px;">cex</text>
            </g>
            <g transform="matrix(1.09578,0,0,1.09578,1306.2,-108.465)">
                <path d="M325.24,1122L682.175,1122" style="fill:none;stroke:black;stroke-width:1.14px;"/>
            </g>
            <g transform="matrix(1.09578,0,0,1,1306.2,284.97)">
                <path d="M325.24,1122L682.175,1122" style="fill:none;stroke:black;stroke-width:1.19px;"/>
            </g>
            <g transform="matrix(1,0,0,1,1337.35,-211.333)">
                <text x="325.24px" y="1605.04px" style="font-family:'Helvetica-Oblique', 'Helvetica';font-style:italic;font-size:33.333px;">Function call</text>
                <g transform="matrix(33.3333,0,0,33.3333,525.24,1655.04)">
                    <rect x="0.125" y="-0.35" width="0.486" height="0.074" style="fill-rule:nonzero;"/>
                </g>
                <g transform="matrix(33.3333,0,0,33.3333,525.24,1655.04)">
                </g>
                <g transform="matrix(33.3333,0,0,33.3333,545.24,1655.04)">
                    <path d="M0.4,-0.276L-0.01,-0.276L-0.01,-0.35L0.4,-0.35L0.4,-0.276ZM0.206,-0.618L0.478,-0.313L0.206,-0.009L0.144,-0.062L0.286,-0.219C0.3,-0.233 0.311,-0.245 0.319,-0.253C0.327,-0.261 0.338,-0.268 0.35,-0.276L0.35,-0.35C0.338,-0.358 0.327,-0.366 0.319,-0.374C0.311,-0.382 0.3,-0.393 0.286,-0.408L0.144,-0.565L0.206,-0.618Z" style="fill-rule:nonzero;"/>
                </g>
                <g transform="matrix(33.3333,0,0,33.3333,545.24,1655.04)">
                </g>
                <g transform="matrix(33.3333,0,0,33.3333,685.24,1655.04)">
                </g>
                <text x="325.24px" y="1655.04px" style="font-family:'FiraCode-Regular', 'Fira Code', monospace;font-size:33.333px;">pGEDevDesc<tspan x="565.24px " y="1655.04px ">t</tspan>ext()</text>
            </g>
        </g>
        <g transform="matrix(0.844304,0,0,0.844304,486.295,153.371)">
            <g transform="matrix(1.18441,-0,-0,1.18441,202.64,945.81)">
                <path d="M535.936,229.938L554.686,242.438L535.936,254.938" style="fill:none;stroke:black;stroke-width:4.17px;stroke-linecap:butt;stroke-linejoin:miter;stroke-miterlimit:10;"/>
                <path d="M429.702,242.438L554.686,242.438" style="fill:none;stroke:black;stroke-width:4.17px;stroke-linecap:butt;"/>
            </g>
        </g>
        <g transform="matrix(0.844304,0,0,0.844304,1054.52,153.371)">
            <g transform="matrix(1.18441,-0,-0,1.18441,-470.375,945.81)">
                <path d="M1104.16,229.938L1122.91,242.438L1104.16,254.938" style="fill:none;stroke:black;stroke-width:4.17px;stroke-linecap:butt;stroke-linejoin:miter;stroke-miterlimit:10;"/>
                <path d="M997.931,242.438L1122.91,242.438" style="fill:none;stroke:black;stroke-width:4.17px;stroke-linecap:butt;"/>
            </g>
        </g>
        <g transform="matrix(0.844304,0,0,0.844304,1657,153.371)">
            <g transform="matrix(1.18441,-0,-0,1.18441,-1183.96,945.81)">
                <path d="M1706.65,229.938L1725.4,242.438L1706.65,254.938" style="fill:none;stroke:black;stroke-width:4.17px;stroke-linecap:butt;stroke-linejoin:miter;stroke-miterlimit:10;"/>
                <path d="M1600.41,242.438L1725.4,242.438" style="fill:none;stroke:black;stroke-width:4.17px;stroke-linecap:butt;"/>
            </g>
        </g>
    </g>
</svg>
