<svg xmlns="http://www.w3.org/2000/svg" xmlns:xlink="http://www.w3.org/1999/xlink" width="840" height="278.80999999999995"><rect width="840" height="278.80999999999995" rx="0" ry="0" class="a"></rect><svg height="238.80999999999997" viewBox="0 0 80 23.880999999999997" width="800" x="20" xmlns="http://www.w3.org/2000/svg" xmlns:xlink="http://www.w3.org/1999/xlink" y="20"><style>.a{fill:rgb(255,255,255,0)}.b{font-family:'Fira Code',Monaco,Consolas,Menlo,'Bitstream Vera Sans Mono','Powerline Symbols',monospace}.c{fill:transparent}.d{fill:rgb(136,34,85);white-space:pre}.e{fill:rgb(221,204,119);white-space:pre}.f{fill:rgb(51,51,51);white-space:pre}.g{fill:rgb(51,34,136);white-space:pre}.h{fill:rgb(136,204,238);white-space:pre}.i{fill:rgb(17,119,51);white-space:pre}</style><g font-family="&#x27;Fira Code&#x27;,Monaco,Consolas,Menlo,&#x27;Bitstream Vera Sans Mono&#x27;,&#x27;Powerline Symbols&#x27;,monospace" font-size="1.67" class="b"><defs><symbol id="a"><rect height="12" width="80" x="0" y="0" class="c"></rect></symbol></defs><rect height="23.880999999999997" width="80" class="a"></rect><svg x="0" y="0" width="80"><svg x="0"><use xlink:href="#a"></use><text x="0" y="1.67" class="d">function</text><text x="9.017999999999999" y="1.67" class="e">(</text><text x="10.02" y="1.67" class="f">x,</text><text x="13.026" y="1.67" class="f">size</text><text x="18.035999999999998" y="1.67" class="f">=</text><text x="20.04" y="1.67" class="g">3</text><text x="21.041999999999998" y="1.67" class="e">)</text><text x="0" y="3.8409999999999997" class="e">{</text><text x="4.008" y="6.012" class="h">stopifnot</text><text x="13.026" y="6.012" class="g">(</text><text x="14.027999999999999" y="6.012" class="h">is.character(</text><text x="27.054" y="6.012" class="f">x</text><text x="28.055999999999997" y="6.012" class="h">)</text><text x="29.058" y="6.012" class="f">,</text><text x="31.061999999999998" y="6.012" class="h">is_count(</text><text x="40.08" y="6.012" class="f">size</text><text x="44.087999999999994" y="6.012" class="h">)</text><text x="45.089999999999996" y="6.012" class="f">,</text><text x="47.093999999999994" y="6.012" class="f">size</text><text x="52.104" y="6.012" class="i">&gt;=</text><text x="55.10999999999999" y="6.012" class="g">1</text><text x="57.114" y="6.012" class="i">&amp;&amp;</text><text x="60.11999999999999" y="6.012" class="f">size</text><text x="65.13" y="6.012" class="i">&lt;=</text><text x="8.016" y="8.183" class="g">4)</text><text x="4.008" y="10.354" class="f">hashes</text><text x="11.021999999999998" y="10.354" class="i">&lt;-</text><text x="14.027999999999999" y="10.354" class="h">lapply</text><text x="20.04" y="10.354" class="g">(</text><text x="21.041999999999998" y="10.354" class="f">x,</text><text x="24.048" y="10.354" class="f">hash_emoji1,</text><text x="37.074" y="10.354" class="f">size</text><text x="42.083999999999996" y="10.354" class="f">=</text><text x="44.087999999999994" y="10.354" class="f">size</text><text x="48.096" y="10.354" class="g">)</text><text x="4.008" y="12.525" class="f">emojis</text><text x="11.021999999999998" y="12.525" class="i">&lt;-</text><text x="14.027999999999999" y="12.525" class="h">lapply</text><text x="20.04" y="12.525" class="g">(</text><text x="21.041999999999998" y="12.525" class="f">hashes,</text><text x="29.058" y="12.525" class="e">&quot;[[&quot;</text><text x="33.065999999999995" y="12.525" class="f">,</text><text x="35.06999999999999" y="12.525" class="e">&quot;emoji&quot;</text><text x="42.083999999999996" y="12.525" class="g">)</text><text x="4.008" y="14.696" class="f">names</text><text x="10.02" y="14.696" class="i">&lt;-</text><text x="13.026" y="14.696" class="h">lapply</text><text x="19.037999999999997" y="14.696" class="g">(</text><text x="20.04" y="14.696" class="f">hashes,</text><text x="28.055999999999997" y="14.696" class="e">&quot;[[&quot;</text><text x="32.064" y="14.696" class="f">,</text><text x="34.068" y="14.696" class="e">&quot;names&quot;</text><text x="41.082" y="14.696" class="g">)</text><text x="4.008" y="16.866999999999997" class="h">data.frame</text><text x="14.027999999999999" y="16.866999999999997" class="g">(</text><text x="15.029999999999998" y="16.866999999999997" class="f">stringsAsFactors</text><text x="32.064" y="16.866999999999997" class="f">=</text><text x="34.068" y="16.866999999999997" class="g">FALSE</text><text x="39.077999999999996" y="16.866999999999997" class="f">,</text><text x="41.082" y="16.866999999999997" class="f">hash</text><text x="46.09199999999999" y="16.866999999999997" class="f">=</text><text x="48.096" y="16.866999999999997" class="h">vapply(</text><text x="55.10999999999999" y="16.866999999999997" class="f">emojis,</text><text x="8.016" y="19.037999999999997" class="f">collapse,</text><text x="18.035999999999998" y="19.037999999999997" class="h">character</text><text x="27.054" y="19.037999999999997" class="e">(</text><text x="28.055999999999997" y="19.037999999999997" class="g">1</text><text x="29.058" y="19.037999999999997" class="e">)</text><text x="30.059999999999995" y="19.037999999999997" class="h">)</text><text x="31.061999999999998" y="19.037999999999997" class="f">,</text><text x="33.065999999999995" y="19.037999999999997" class="f">emojis</text><text x="40.08" y="19.037999999999997" class="f">=</text><text x="42.083999999999996" y="19.037999999999997" class="h">I(</text><text x="44.087999999999994" y="19.037999999999997" class="f">emojis</text><text x="50.1" y="19.037999999999997" class="h">)</text><text x="51.102" y="19.037999999999997" class="f">,</text><text x="53.105999999999995" y="19.037999999999997" class="f">text</text><text x="58.116" y="19.037999999999997" class="f">=</text><text x="60.11999999999999" y="19.037999999999997" class="h">vapply(</text><text x="67.134" y="19.037999999999997" class="f">names,</text><text x="8.016" y="21.209000000000003" class="f">collapse,</text><text x="18.035999999999998" y="21.209000000000003" class="h">character</text><text x="27.054" y="21.209000000000003" class="e">(</text><text x="28.055999999999997" y="21.209000000000003" class="g">1</text><text x="29.058" y="21.209000000000003" class="e">)</text><text x="30.059999999999995" y="21.209000000000003" class="f">,</text><text x="32.064" y="21.209000000000003" class="f">sep</text><text x="36.071999999999996" y="21.209000000000003" class="f">=</text><text x="38.07599999999999" y="21.209000000000003" class="e">&quot;,</text><text x="41.082" y="21.209000000000003" class="e">&quot;</text><text x="42.083999999999996" y="21.209000000000003" class="h">)</text><text x="43.086" y="21.209000000000003" class="f">,</text><text x="45.089999999999996" y="21.209000000000003" class="f">names</text><text x="51.102" y="21.209000000000003" class="f">=</text><text x="53.105999999999995" y="21.209000000000003" class="h">I(</text><text x="55.10999999999999" y="21.209000000000003" class="f">names</text><text x="60.11999999999999" y="21.209000000000003" class="h">)</text><text x="61.12199999999999" y="21.209000000000003" class="g">)</text><text x="0" y="23.380000000000003" class="e">}</text></svg></svg></g></svg></svg>