<svg xmlns="http://www.w3.org/2000/svg" xmlns:xlink="http://www.w3.org/1999/xlink" width="840" height="83.41999999999999"><rect width="840" height="83.41999999999999" rx="0" ry="0" class="a"></rect><svg height="43.419999999999995" viewBox="0 0 80 4.342" width="800" x="20" xmlns="http://www.w3.org/2000/svg" xmlns:xlink="http://www.w3.org/1999/xlink" y="20"><style>.a{fill:rgb(40,45,53)}.b{font-family:'Fira Code',Monaco,Consolas,Menlo,'Bitstream Vera Sans Mono','Powerline Symbols',monospace}.c{fill:rgb(185,192,203);white-space:pre}.d{fill:rgb(168,204,140);white-space:pre}.e{fill:transparent}.f{fill:rgb(111,118,131)}.h{animation-duration:15.1209977476577s;animation-iteration-count:infinite;animation-name:g;animation-timing-function:steps(1,end)}@keyframes g{0%{transform:translateX(-0px)}0%{transform:translateX(-80px)}0.3%{transform:translateX(-160px)}0.6%{transform:translateX(-240px)}1.1%{transform:translateX(-320px)}1.5%{transform:translateX(-400px)}1.6%{transform:translateX(-480px)}1.8%{transform:translateX(-560px)}2%{transform:translateX(-640px)}2.5%{transform:translateX(-720px)}2.8%{transform:translateX(-800px)}3.1%{transform:translateX(-880px)}3.6%{transform:translateX(-960px)}4.1%{transform:translateX(-1040px)}4.3%{transform:translateX(-1120px)}4.7%{transform:translateX(-1200px)}5.2%{transform:translateX(-1280px)}5.6%{transform:translateX(-1360px)}6%{transform:translateX(-1440px)}6.3%{transform:translateX(-1520px)}6.5%{transform:translateX(-1600px)}6.9%{transform:translateX(-1680px)}7%{transform:translateX(-1760px)}7.4%{transform:translateX(-1840px)}7.6%{transform:translateX(-1920px)}7.9%{transform:translateX(-2000px)}8%{transform:translateX(-2080px)}8.5%{transform:translateX(-2160px)}9%{transform:translateX(-2240px)}9.2%{transform:translateX(-2320px)}9.6%{transform:translateX(-2400px)}10%{transform:translateX(-2480px)}10.4%{transform:translateX(-2560px)}10.6%{transform:translateX(-2640px)}11.1%{transform:translateX(-2720px)}11.6%{transform:translateX(-2800px)}11.9%{transform:translateX(-2880px)}12.1%{transform:translateX(-2960px)}12.3%{transform:translateX(-3040px)}12.7%{transform:translateX(-3120px)}13.1%{transform:translateX(-3200px)}13.5%{transform:translateX(-3280px)}13.8%{transform:translateX(-3360px)}14.1%{transform:translateX(-3440px)}14.4%{transform:translateX(-3520px)}14.8%{transform:translateX(-3600px)}15.1%{transform:translateX(-3680px)}15.5%{transform:translateX(-3760px)}15.9%{transform:translateX(-3840px)}16.2%{transform:translateX(-3920px)}16.5%{transform:translateX(-4000px)}16.9%{transform:translateX(-4080px)}17.2%{transform:translateX(-4160px)}17.5%{transform:translateX(-4240px)}18%{transform:translateX(-4320px)}18.3%{transform:translateX(-4400px)}18.6%{transform:translateX(-4480px)}18.6%{transform:translateX(-4560px)}18.7%{transform:translateX(-4640px)}18.7%{transform:translateX(-4720px)}19.6%{transform:translateX(-4800px)}21%{transform:translateX(-4880px)}22.3%{transform:translateX(-4960px)}23.7%{transform:translateX(-5040px)}25%{transform:translateX(-5120px)}26.4%{transform:translateX(-5200px)}27.7%{transform:translateX(-5280px)}29.1%{transform:translateX(-5360px)}30.4%{transform:translateX(-5440px)}31.7%{transform:translateX(-5520px)}33.1%{transform:translateX(-5600px)}34.4%{transform:translateX(-5680px)}35.9%{transform:translateX(-5760px)}37.2%{transform:translateX(-5840px)}38.5%{transform:translateX(-5920px)}39.8%{transform:translateX(-6000px)}41.2%{transform:translateX(-6080px)}42.6%{transform:translateX(-6160px)}43.9%{transform:translateX(-6240px)}45.2%{transform:translateX(-6320px)}46.6%{transform:translateX(-6400px)}48%{transform:translateX(-6480px)}49.3%{transform:translateX(-6560px)}50.6%{transform:translateX(-6640px)}52%{transform:translateX(-6720px)}53.4%{transform:translateX(-6800px)}54.7%{transform:translateX(-6880px)}56.1%{transform:translateX(-6960px)}57.4%{transform:translateX(-7040px)}58.7%{transform:translateX(-7120px)}60%{transform:translateX(-7200px)}60.3%{transform:translateX(-7280px)}60.3%{transform:translateX(-7360px)}60.3%{transform:translateX(-7440px)}100%{transform:translateX(-7520px)}}</style><g font-family="&#x27;Fira Code&#x27;,Monaco,Consolas,Menlo,&#x27;Bitstream Vera Sans Mono&#x27;,&#x27;Powerline Symbols&#x27;,monospace" font-size="1.67" class="b"><defs><symbol id="1"><text font-size="1.67" x="0" y="1.67" class="c">&gt;</text><text font-size="1.67" x="2.004" y="1.67" class="c">x</text></symbol><symbol id="2"><text font-size="1.67" x="0" y="1.67" class="c">&gt;</text><text font-size="1.67" x="2.004" y="1.67" class="c">x</text><text font-size="1.67" x="4.008" y="1.67" class="c">&lt;-</text></symbol><symbol id="3"><text font-size="1.67" x="0" y="1.67" class="c">&gt;</text><text font-size="1.67" x="2.004" y="1.67" class="c">x</text><text font-size="1.67" x="4.008" y="1.67" class="c">&lt;-</text><text font-size="1.67" x="7.013999999999999" y="1.67" class="c">map(1:500,</text></symbol><symbol id="4"><text font-size="1.67" x="0" y="1.67" class="c">&gt;</text><text font-size="1.67" x="2.004" y="1.67" class="c">x</text><text font-size="1.67" x="4.008" y="1.67" class="c">&lt;-</text><text font-size="1.67" x="7.013999999999999" y="1.67" class="c">map(1:500,</text><text font-size="1.67" x="18.035999999999998" y="1.67" class="c">\(x)</text></symbol><symbol id="5"><text font-size="1.67" x="0" y="1.67" class="c">&gt;</text><text font-size="1.67" x="2.004" y="1.67" class="c">x</text><text font-size="1.67" x="4.008" y="1.67" class="c">&lt;-</text><text font-size="1.67" x="7.013999999999999" y="1.67" class="c">map(1:500,</text><text font-size="1.67" x="18.035999999999998" y="1.67" class="c">\(x)</text><text font-size="1.67" x="23.045999999999996" y="1.67" class="c">Sys.sleep(0.01),</text></symbol><symbol id="6"><text font-size="1.67" x="0" y="1.67" class="c">&gt;</text><text font-size="1.67" x="2.004" y="1.67" class="c">x</text><text font-size="1.67" x="4.008" y="1.67" class="c">&lt;-</text><text font-size="1.67" x="7.013999999999999" y="1.67" class="c">map(1:500,</text><text font-size="1.67" x="18.035999999999998" y="1.67" class="c">\(x)</text><text font-size="1.67" x="23.045999999999996" y="1.67" class="c">Sys.sleep(0.01),</text><text font-size="1.67" x="40.08" y="1.67" class="c">.progress</text></symbol><symbol id="7"><text font-size="1.67" x="0" y="1.67" class="c">&gt;</text><text font-size="1.67" x="2.004" y="1.67" class="c">x</text><text font-size="1.67" x="4.008" y="1.67" class="c">&lt;-</text><text font-size="1.67" x="7.013999999999999" y="1.67" class="c">map(1:500,</text><text font-size="1.67" x="18.035999999999998" y="1.67" class="c">\(x)</text><text font-size="1.67" x="23.045999999999996" y="1.67" class="c">Sys.sleep(0.01),</text><text font-size="1.67" x="40.08" y="1.67" class="c">.progress</text><text font-size="1.67" x="50.1" y="1.67" class="c">=</text></symbol><symbol id="8"><text font-size="1.67" x="0" y="1.67" class="c">&gt;</text><text font-size="1.67" x="2.004" y="1.67" class="c">x</text><text font-size="1.67" x="4.008" y="1.67" class="c">&lt;-</text><text font-size="1.67" x="7.013999999999999" y="1.67" class="c">map(1:500,</text><text font-size="1.67" x="18.035999999999998" y="1.67" class="c">\(x)</text><text font-size="1.67" x="23.045999999999996" y="1.67" class="c">Sys.sleep(0.01),</text><text font-size="1.67" x="40.08" y="1.67" class="c">.progress</text><text font-size="1.67" x="50.1" y="1.67" class="c">=</text><text font-size="1.67" x="52.104" y="1.67" class="c">TRUE)</text></symbol><symbol id="9"><text font-size="1.67" x="1.002" y="1.67" class="d">■■■■■■■■■■■■■■■■■■■■■■■■■■■■■■■</text><text font-size="1.67" x="34.068" y="1.67" class="c">100%</text><text font-size="1.67" x="39.077999999999996" y="1.67" class="c">|</text><text font-size="1.67" x="42.083999999999996" y="1.67" class="c">ETA:</text><text font-size="1.67" x="48.096" y="1.67" class="c">0s</text></symbol><symbol id="a"><rect height="2" width="80" x="0" y="0" class="e"></rect></symbol><symbol id="b"><rect height="2.171" width="1.1022" class="f"></rect></symbol></defs><rect height="4.342" width="80" class="a"></rect><g class="h"><svg x="0" y="0" width="7600"><svg x="0"><use xlink:href="#a"></use><use xlink:href="#b" x="-0.0040000000000000036" y="0"></use></svg><svg x="80"><use xlink:href="#a"></use><use xlink:href="#b" x="1.996" y="0"></use><text font-size="1.67" x="0" y="1.67" class="c">&gt;</text></svg><svg x="160"><use xlink:href="#a"></use><use xlink:href="#b" x="2.996" y="0"></use><use xlink:href="#1" y="0"></use></svg><svg x="240"><use xlink:href="#a"></use><use xlink:href="#b" x="3.996" y="0"></use><use xlink:href="#1" y="0"></use></svg><svg x="320"><use xlink:href="#a"></use><use xlink:href="#b" x="4.996" y="0"></use><text font-size="1.67" x="0" y="1.67" class="c">&gt;</text><text font-size="1.67" x="2.004" y="1.67" class="c">x</text><text font-size="1.67" x="4.008" y="1.67" class="c">&lt;</text></svg><svg x="400"><use xlink:href="#a"></use><use xlink:href="#b" x="5.996" y="0"></use><use xlink:href="#2" y="0"></use></svg><svg x="480"><use xlink:href="#a"></use><use xlink:href="#b" x="6.996" y="0"></use><use xlink:href="#2" y="0"></use></svg><svg x="560"><use xlink:href="#a"></use><use xlink:href="#b" x="7.996" y="0"></use><text font-size="1.67" x="0" y="1.67" class="c">&gt;</text><text font-size="1.67" x="2.004" y="1.67" class="c">x</text><text font-size="1.67" x="4.008" y="1.67" class="c">&lt;-</text><text font-size="1.67" x="7.013999999999999" y="1.67" class="c">m</text></svg><svg x="640"><use xlink:href="#a"></use><use xlink:href="#b" x="8.996" y="0"></use><text font-size="1.67" x="0" y="1.67" class="c">&gt;</text><text font-size="1.67" x="2.004" y="1.67" class="c">x</text><text font-size="1.67" x="4.008" y="1.67" class="c">&lt;-</text><text font-size="1.67" x="7.013999999999999" y="1.67" class="c">ma</text></svg><svg x="720"><use xlink:href="#a"></use><use xlink:href="#b" x="9.996" y="0"></use><text font-size="1.67" x="0" y="1.67" class="c">&gt;</text><text font-size="1.67" x="2.004" y="1.67" class="c">x</text><text font-size="1.67" x="4.008" y="1.67" class="c">&lt;-</text><text font-size="1.67" x="7.013999999999999" y="1.67" class="c">map</text></svg><svg x="800"><use xlink:href="#a"></use><use xlink:href="#b" x="10.996" y="0"></use><text font-size="1.67" x="0" y="1.67" class="c">&gt;</text><text font-size="1.67" x="2.004" y="1.67" class="c">x</text><text font-size="1.67" x="4.008" y="1.67" class="c">&lt;-</text><text font-size="1.67" x="7.013999999999999" y="1.67" class="c">map(</text></svg><svg x="880"><use xlink:href="#a"></use><use xlink:href="#b" x="11.996" y="0"></use><text font-size="1.67" x="0" y="1.67" class="c">&gt;</text><text font-size="1.67" x="2.004" y="1.67" class="c">x</text><text font-size="1.67" x="4.008" y="1.67" class="c">&lt;-</text><text font-size="1.67" x="7.013999999999999" y="1.67" class="c">map(1</text></svg><svg x="960"><use xlink:href="#a"></use><use xlink:href="#b" x="12.996" y="0"></use><text font-size="1.67" x="0" y="1.67" class="c">&gt;</text><text font-size="1.67" x="2.004" y="1.67" class="c">x</text><text font-size="1.67" x="4.008" y="1.67" class="c">&lt;-</text><text font-size="1.67" x="7.013999999999999" y="1.67" class="c">map(1:</text></svg><svg x="1040"><use xlink:href="#a"></use><use xlink:href="#b" x="13.996" y="0"></use><text font-size="1.67" x="0" y="1.67" class="c">&gt;</text><text font-size="1.67" x="2.004" y="1.67" class="c">x</text><text font-size="1.67" x="4.008" y="1.67" class="c">&lt;-</text><text font-size="1.67" x="7.013999999999999" y="1.67" class="c">map(1:5</text></svg><svg x="1120"><use xlink:href="#a"></use><use xlink:href="#b" x="14.996" y="0"></use><text font-size="1.67" x="0" y="1.67" class="c">&gt;</text><text font-size="1.67" x="2.004" y="1.67" class="c">x</text><text font-size="1.67" x="4.008" y="1.67" class="c">&lt;-</text><text font-size="1.67" x="7.013999999999999" y="1.67" class="c">map(1:50</text></svg><svg x="1200"><use xlink:href="#a"></use><use xlink:href="#b" x="15.996" y="0"></use><text font-size="1.67" x="0" y="1.67" class="c">&gt;</text><text font-size="1.67" x="2.004" y="1.67" class="c">x</text><text font-size="1.67" x="4.008" y="1.67" class="c">&lt;-</text><text font-size="1.67" x="7.013999999999999" y="1.67" class="c">map(1:500</text></svg><svg x="1280"><use xlink:href="#a"></use><use xlink:href="#b" x="16.996" y="0"></use><use xlink:href="#3" y="0"></use></svg><svg x="1360"><use xlink:href="#a"></use><use xlink:href="#b" x="17.996" y="0"></use><use xlink:href="#3" y="0"></use></svg><svg x="1440"><use xlink:href="#a"></use><use xlink:href="#b" x="18.996" y="0"></use><text font-size="1.67" x="0" y="1.67" class="c">&gt;</text><text font-size="1.67" x="2.004" y="1.67" class="c">x</text><text font-size="1.67" x="4.008" y="1.67" class="c">&lt;-</text><text font-size="1.67" x="7.013999999999999" y="1.67" class="c">map(1:500,</text><text font-size="1.67" x="18.035999999999998" y="1.67" class="c">\</text></svg><svg x="1520"><use xlink:href="#a"></use><use xlink:href="#b" x="19.996" y="0"></use><text font-size="1.67" x="0" y="1.67" class="c">&gt;</text><text font-size="1.67" x="2.004" y="1.67" class="c">x</text><text font-size="1.67" x="4.008" y="1.67" class="c">&lt;-</text><text font-size="1.67" x="7.013999999999999" y="1.67" class="c">map(1:500,</text><text font-size="1.67" x="18.035999999999998" y="1.67" class="c">\(</text></svg><svg x="1600"><use xlink:href="#a"></use><use xlink:href="#b" x="20.996" y="0"></use><text font-size="1.67" x="0" y="1.67" class="c">&gt;</text><text font-size="1.67" x="2.004" y="1.67" class="c">x</text><text font-size="1.67" x="4.008" y="1.67" class="c">&lt;-</text><text font-size="1.67" x="7.013999999999999" y="1.67" class="c">map(1:500,</text><text font-size="1.67" x="18.035999999999998" y="1.67" class="c">\(x</text></svg><svg x="1680"><use xlink:href="#a"></use><use xlink:href="#b" x="21.996" y="0"></use><use xlink:href="#4" y="0"></use></svg><svg x="1760"><use xlink:href="#a"></use><use xlink:href="#b" x="22.996" y="0"></use><use xlink:href="#4" y="0"></use></svg><svg x="1840"><use xlink:href="#a"></use><use xlink:href="#b" x="23.996" y="0"></use><text font-size="1.67" x="0" y="1.67" class="c">&gt;</text><text font-size="1.67" x="2.004" y="1.67" class="c">x</text><text font-size="1.67" x="4.008" y="1.67" class="c">&lt;-</text><text font-size="1.67" x="7.013999999999999" y="1.67" class="c">map(1:500,</text><text font-size="1.67" x="18.035999999999998" y="1.67" class="c">\(x)</text><text font-size="1.67" x="23.045999999999996" y="1.67" class="c">S</text></svg><svg x="1920"><use xlink:href="#a"></use><use xlink:href="#b" x="24.996" y="0"></use><text font-size="1.67" x="0" y="1.67" class="c">&gt;</text><text font-size="1.67" x="2.004" y="1.67" class="c">x</text><text font-size="1.67" x="4.008" y="1.67" class="c">&lt;-</text><text font-size="1.67" x="7.013999999999999" y="1.67" class="c">map(1:500,</text><text font-size="1.67" x="18.035999999999998" y="1.67" class="c">\(x)</text><text font-size="1.67" x="23.045999999999996" y="1.67" class="c">Sy</text></svg><svg x="2000"><use xlink:href="#a"></use><use xlink:href="#b" x="25.996" y="0"></use><text font-size="1.67" x="0" y="1.67" class="c">&gt;</text><text font-size="1.67" x="2.004" y="1.67" class="c">x</text><text font-size="1.67" x="4.008" y="1.67" class="c">&lt;-</text><text font-size="1.67" x="7.013999999999999" y="1.67" class="c">map(1:500,</text><text font-size="1.67" x="18.035999999999998" y="1.67" class="c">\(x)</text><text font-size="1.67" x="23.045999999999996" y="1.67" class="c">Sys</text></svg><svg x="2080"><use xlink:href="#a"></use><use xlink:href="#b" x="26.996" y="0"></use><text font-size="1.67" x="0" y="1.67" class="c">&gt;</text><text font-size="1.67" x="2.004" y="1.67" class="c">x</text><text font-size="1.67" x="4.008" y="1.67" class="c">&lt;-</text><text font-size="1.67" x="7.013999999999999" y="1.67" class="c">map(1:500,</text><text font-size="1.67" x="18.035999999999998" y="1.67" class="c">\(x)</text><text font-size="1.67" x="23.045999999999996" y="1.67" class="c">Sys.</text></svg><svg x="2160"><use xlink:href="#a"></use><use xlink:href="#b" x="27.996" y="0"></use><text font-size="1.67" x="0" y="1.67" class="c">&gt;</text><text font-size="1.67" x="2.004" y="1.67" class="c">x</text><text font-size="1.67" x="4.008" y="1.67" class="c">&lt;-</text><text font-size="1.67" x="7.013999999999999" y="1.67" class="c">map(1:500,</text><text font-size="1.67" x="18.035999999999998" y="1.67" class="c">\(x)</text><text font-size="1.67" x="23.045999999999996" y="1.67" class="c">Sys.s</text></svg><svg x="2240"><use xlink:href="#a"></use><use xlink:href="#b" x="28.996" y="0"></use><text font-size="1.67" x="0" y="1.67" class="c">&gt;</text><text font-size="1.67" x="2.004" y="1.67" class="c">x</text><text font-size="1.67" x="4.008" y="1.67" class="c">&lt;-</text><text font-size="1.67" x="7.013999999999999" y="1.67" class="c">map(1:500,</text><text font-size="1.67" x="18.035999999999998" y="1.67" class="c">\(x)</text><text font-size="1.67" x="23.045999999999996" y="1.67" class="c">Sys.sl</text></svg><svg x="2320"><use xlink:href="#a"></use><use xlink:href="#b" x="29.996" y="0"></use><text font-size="1.67" x="0" y="1.67" class="c">&gt;</text><text font-size="1.67" x="2.004" y="1.67" class="c">x</text><text font-size="1.67" x="4.008" y="1.67" class="c">&lt;-</text><text font-size="1.67" x="7.013999999999999" y="1.67" class="c">map(1:500,</text><text font-size="1.67" x="18.035999999999998" y="1.67" class="c">\(x)</text><text font-size="1.67" x="23.045999999999996" y="1.67" class="c">Sys.sle</text></svg><svg x="2400"><use xlink:href="#a"></use><use xlink:href="#b" x="30.996" y="0"></use><text font-size="1.67" x="0" y="1.67" class="c">&gt;</text><text font-size="1.67" x="2.004" y="1.67" class="c">x</text><text font-size="1.67" x="4.008" y="1.67" class="c">&lt;-</text><text font-size="1.67" x="7.013999999999999" y="1.67" class="c">map(1:500,</text><text font-size="1.67" x="18.035999999999998" y="1.67" class="c">\(x)</text><text font-size="1.67" x="23.045999999999996" y="1.67" class="c">Sys.slee</text></svg><svg x="2480"><use xlink:href="#a"></use><use xlink:href="#b" x="31.996" y="0"></use><text font-size="1.67" x="0" y="1.67" class="c">&gt;</text><text font-size="1.67" x="2.004" y="1.67" class="c">x</text><text font-size="1.67" x="4.008" y="1.67" class="c">&lt;-</text><text font-size="1.67" x="7.013999999999999" y="1.67" class="c">map(1:500,</text><text font-size="1.67" x="18.035999999999998" y="1.67" class="c">\(x)</text><text font-size="1.67" x="23.045999999999996" y="1.67" class="c">Sys.sleep</text></svg><svg x="2560"><use xlink:href="#a"></use><use xlink:href="#b" x="32.996" y="0"></use><text font-size="1.67" x="0" y="1.67" class="c">&gt;</text><text font-size="1.67" x="2.004" y="1.67" class="c">x</text><text font-size="1.67" x="4.008" y="1.67" class="c">&lt;-</text><text font-size="1.67" x="7.013999999999999" y="1.67" class="c">map(1:500,</text><text font-size="1.67" x="18.035999999999998" y="1.67" class="c">\(x)</text><text font-size="1.67" x="23.045999999999996" y="1.67" class="c">Sys.sleep(</text></svg><svg x="2640"><use xlink:href="#a"></use><use xlink:href="#b" x="33.996" y="0"></use><text font-size="1.67" x="0" y="1.67" class="c">&gt;</text><text font-size="1.67" x="2.004" y="1.67" class="c">x</text><text font-size="1.67" x="4.008" y="1.67" class="c">&lt;-</text><text font-size="1.67" x="7.013999999999999" y="1.67" class="c">map(1:500,</text><text font-size="1.67" x="18.035999999999998" y="1.67" class="c">\(x)</text><text font-size="1.67" x="23.045999999999996" y="1.67" class="c">Sys.sleep(0</text></svg><svg x="2720"><use xlink:href="#a"></use><use xlink:href="#b" x="34.996" y="0"></use><text font-size="1.67" x="0" y="1.67" class="c">&gt;</text><text font-size="1.67" x="2.004" y="1.67" class="c">x</text><text font-size="1.67" x="4.008" y="1.67" class="c">&lt;-</text><text font-size="1.67" x="7.013999999999999" y="1.67" class="c">map(1:500,</text><text font-size="1.67" x="18.035999999999998" y="1.67" class="c">\(x)</text><text font-size="1.67" x="23.045999999999996" y="1.67" class="c">Sys.sleep(0.</text></svg><svg x="2800"><use xlink:href="#a"></use><use xlink:href="#b" x="35.996" y="0"></use><text font-size="1.67" x="0" y="1.67" class="c">&gt;</text><text font-size="1.67" x="2.004" y="1.67" class="c">x</text><text font-size="1.67" x="4.008" y="1.67" class="c">&lt;-</text><text font-size="1.67" x="7.013999999999999" y="1.67" class="c">map(1:500,</text><text font-size="1.67" x="18.035999999999998" y="1.67" class="c">\(x)</text><text font-size="1.67" x="23.045999999999996" y="1.67" class="c">Sys.sleep(0.0</text></svg><svg x="2880"><use xlink:href="#a"></use><use xlink:href="#b" x="36.996" y="0"></use><text font-size="1.67" x="0" y="1.67" class="c">&gt;</text><text font-size="1.67" x="2.004" y="1.67" class="c">x</text><text font-size="1.67" x="4.008" y="1.67" class="c">&lt;-</text><text font-size="1.67" x="7.013999999999999" y="1.67" class="c">map(1:500,</text><text font-size="1.67" x="18.035999999999998" y="1.67" class="c">\(x)</text><text font-size="1.67" x="23.045999999999996" y="1.67" class="c">Sys.sleep(0.01</text></svg><svg x="2960"><use xlink:href="#a"></use><use xlink:href="#b" x="37.996" y="0"></use><text font-size="1.67" x="0" y="1.67" class="c">&gt;</text><text font-size="1.67" x="2.004" y="1.67" class="c">x</text><text font-size="1.67" x="4.008" y="1.67" class="c">&lt;-</text><text font-size="1.67" x="7.013999999999999" y="1.67" class="c">map(1:500,</text><text font-size="1.67" x="18.035999999999998" y="1.67" class="c">\(x)</text><text font-size="1.67" x="23.045999999999996" y="1.67" class="c">Sys.sleep(0.01)</text></svg><svg x="3040"><use xlink:href="#a"></use><use xlink:href="#b" x="38.996" y="0"></use><use xlink:href="#5" y="0"></use></svg><svg x="3120"><use xlink:href="#a"></use><use xlink:href="#b" x="39.996" y="0"></use><use xlink:href="#5" y="0"></use></svg><svg x="3200"><use xlink:href="#a"></use><use xlink:href="#b" x="40.996" y="0"></use><text font-size="1.67" x="0" y="1.67" class="c">&gt;</text><text font-size="1.67" x="2.004" y="1.67" class="c">x</text><text font-size="1.67" x="4.008" y="1.67" class="c">&lt;-</text><text font-size="1.67" x="7.013999999999999" y="1.67" class="c">map(1:500,</text><text font-size="1.67" x="18.035999999999998" y="1.67" class="c">\(x)</text><text font-size="1.67" x="23.045999999999996" y="1.67" class="c">Sys.sleep(0.01),</text><text font-size="1.67" x="40.08" y="1.67" class="c">.</text></svg><svg x="3280"><use xlink:href="#a"></use><use xlink:href="#b" x="41.996" y="0"></use><text font-size="1.67" x="0" y="1.67" class="c">&gt;</text><text font-size="1.67" x="2.004" y="1.67" class="c">x</text><text font-size="1.67" x="4.008" y="1.67" class="c">&lt;-</text><text font-size="1.67" x="7.013999999999999" y="1.67" class="c">map(1:500,</text><text font-size="1.67" x="18.035999999999998" y="1.67" class="c">\(x)</text><text font-size="1.67" x="23.045999999999996" y="1.67" class="c">Sys.sleep(0.01),</text><text font-size="1.67" x="40.08" y="1.67" class="c">.p</text></svg><svg x="3360"><use xlink:href="#a"></use><use xlink:href="#b" x="42.996" y="0"></use><text font-size="1.67" x="0" y="1.67" class="c">&gt;</text><text font-size="1.67" x="2.004" y="1.67" class="c">x</text><text font-size="1.67" x="4.008" y="1.67" class="c">&lt;-</text><text font-size="1.67" x="7.013999999999999" y="1.67" class="c">map(1:500,</text><text font-size="1.67" x="18.035999999999998" y="1.67" class="c">\(x)</text><text font-size="1.67" x="23.045999999999996" y="1.67" class="c">Sys.sleep(0.01),</text><text font-size="1.67" x="40.08" y="1.67" class="c">.pr</text></svg><svg x="3440"><use xlink:href="#a"></use><use xlink:href="#b" x="43.996" y="0"></use><text font-size="1.67" x="0" y="1.67" class="c">&gt;</text><text font-size="1.67" x="2.004" y="1.67" class="c">x</text><text font-size="1.67" x="4.008" y="1.67" class="c">&lt;-</text><text font-size="1.67" x="7.013999999999999" y="1.67" class="c">map(1:500,</text><text font-size="1.67" x="18.035999999999998" y="1.67" class="c">\(x)</text><text font-size="1.67" x="23.045999999999996" y="1.67" class="c">Sys.sleep(0.01),</text><text font-size="1.67" x="40.08" y="1.67" class="c">.pro</text></svg><svg x="3520"><use xlink:href="#a"></use><use xlink:href="#b" x="44.996" y="0"></use><text font-size="1.67" x="0" y="1.67" class="c">&gt;</text><text font-size="1.67" x="2.004" y="1.67" class="c">x</text><text font-size="1.67" x="4.008" y="1.67" class="c">&lt;-</text><text font-size="1.67" x="7.013999999999999" y="1.67" class="c">map(1:500,</text><text font-size="1.67" x="18.035999999999998" y="1.67" class="c">\(x)</text><text font-size="1.67" x="23.045999999999996" y="1.67" class="c">Sys.sleep(0.01),</text><text font-size="1.67" x="40.08" y="1.67" class="c">.prog</text></svg><svg x="3600"><use xlink:href="#a"></use><use xlink:href="#b" x="45.996" y="0"></use><text font-size="1.67" x="0" y="1.67" class="c">&gt;</text><text font-size="1.67" x="2.004" y="1.67" class="c">x</text><text font-size="1.67" x="4.008" y="1.67" class="c">&lt;-</text><text font-size="1.67" x="7.013999999999999" y="1.67" class="c">map(1:500,</text><text font-size="1.67" x="18.035999999999998" y="1.67" class="c">\(x)</text><text font-size="1.67" x="23.045999999999996" y="1.67" class="c">Sys.sleep(0.01),</text><text font-size="1.67" x="40.08" y="1.67" class="c">.progr</text></svg><svg x="3680"><use xlink:href="#a"></use><use xlink:href="#b" x="46.996" y="0"></use><text font-size="1.67" x="0" y="1.67" class="c">&gt;</text><text font-size="1.67" x="2.004" y="1.67" class="c">x</text><text font-size="1.67" x="4.008" y="1.67" class="c">&lt;-</text><text font-size="1.67" x="7.013999999999999" y="1.67" class="c">map(1:500,</text><text font-size="1.67" x="18.035999999999998" y="1.67" class="c">\(x)</text><text font-size="1.67" x="23.045999999999996" y="1.67" class="c">Sys.sleep(0.01),</text><text font-size="1.67" x="40.08" y="1.67" class="c">.progre</text></svg><svg x="3760"><use xlink:href="#a"></use><use xlink:href="#b" x="47.996" y="0"></use><text font-size="1.67" x="0" y="1.67" class="c">&gt;</text><text font-size="1.67" x="2.004" y="1.67" class="c">x</text><text font-size="1.67" x="4.008" y="1.67" class="c">&lt;-</text><text font-size="1.67" x="7.013999999999999" y="1.67" class="c">map(1:500,</text><text font-size="1.67" x="18.035999999999998" y="1.67" class="c">\(x)</text><text font-size="1.67" x="23.045999999999996" y="1.67" class="c">Sys.sleep(0.01),</text><text font-size="1.67" x="40.08" y="1.67" class="c">.progres</text></svg><svg x="3840"><use xlink:href="#a"></use><use xlink:href="#b" x="48.996" y="0"></use><use xlink:href="#6" y="0"></use></svg><svg x="3920"><use xlink:href="#a"></use><use xlink:href="#b" x="49.996" y="0"></use><use xlink:href="#6" y="0"></use></svg><svg x="4000"><use xlink:href="#a"></use><use xlink:href="#b" x="50.996" y="0"></use><use xlink:href="#7" y="0"></use></svg><svg x="4080"><use xlink:href="#a"></use><use xlink:href="#b" x="51.996" y="0"></use><use xlink:href="#7" y="0"></use></svg><svg x="4160"><use xlink:href="#a"></use><use xlink:href="#b" x="52.996" y="0"></use><text font-size="1.67" x="0" y="1.67" class="c">&gt;</text><text font-size="1.67" x="2.004" y="1.67" class="c">x</text><text font-size="1.67" x="4.008" y="1.67" class="c">&lt;-</text><text font-size="1.67" x="7.013999999999999" y="1.67" class="c">map(1:500,</text><text font-size="1.67" x="18.035999999999998" y="1.67" class="c">\(x)</text><text font-size="1.67" x="23.045999999999996" y="1.67" class="c">Sys.sleep(0.01),</text><text font-size="1.67" x="40.08" y="1.67" class="c">.progress</text><text font-size="1.67" x="50.1" y="1.67" class="c">=</text><text font-size="1.67" x="52.104" y="1.67" class="c">T</text></svg><svg x="4240"><use xlink:href="#a"></use><use xlink:href="#b" x="53.996" y="0"></use><text font-size="1.67" x="0" y="1.67" class="c">&gt;</text><text font-size="1.67" x="2.004" y="1.67" class="c">x</text><text font-size="1.67" x="4.008" y="1.67" class="c">&lt;-</text><text font-size="1.67" x="7.013999999999999" y="1.67" class="c">map(1:500,</text><text font-size="1.67" x="18.035999999999998" y="1.67" class="c">\(x)</text><text font-size="1.67" x="23.045999999999996" y="1.67" class="c">Sys.sleep(0.01),</text><text font-size="1.67" x="40.08" y="1.67" class="c">.progress</text><text font-size="1.67" x="50.1" y="1.67" class="c">=</text><text font-size="1.67" x="52.104" y="1.67" class="c">TR</text></svg><svg x="4320"><use xlink:href="#a"></use><use xlink:href="#b" x="54.996" y="0"></use><text font-size="1.67" x="0" y="1.67" class="c">&gt;</text><text font-size="1.67" x="2.004" y="1.67" class="c">x</text><text font-size="1.67" x="4.008" y="1.67" class="c">&lt;-</text><text font-size="1.67" x="7.013999999999999" y="1.67" class="c">map(1:500,</text><text font-size="1.67" x="18.035999999999998" y="1.67" class="c">\(x)</text><text font-size="1.67" x="23.045999999999996" y="1.67" class="c">Sys.sleep(0.01),</text><text font-size="1.67" x="40.08" y="1.67" class="c">.progress</text><text font-size="1.67" x="50.1" y="1.67" class="c">=</text><text font-size="1.67" x="52.104" y="1.67" class="c">TRU</text></svg><svg x="4400"><use xlink:href="#a"></use><use xlink:href="#b" x="55.996" y="0"></use><text font-size="1.67" x="0" y="1.67" class="c">&gt;</text><text font-size="1.67" x="2.004" y="1.67" class="c">x</text><text font-size="1.67" x="4.008" y="1.67" class="c">&lt;-</text><text font-size="1.67" x="7.013999999999999" y="1.67" class="c">map(1:500,</text><text font-size="1.67" x="18.035999999999998" y="1.67" class="c">\(x)</text><text font-size="1.67" x="23.045999999999996" y="1.67" class="c">Sys.sleep(0.01),</text><text font-size="1.67" x="40.08" y="1.67" class="c">.progress</text><text font-size="1.67" x="50.1" y="1.67" class="c">=</text><text font-size="1.67" x="52.104" y="1.67" class="c">TRUE</text></svg><svg x="4480"><use xlink:href="#a"></use><use xlink:href="#b" x="56.996" y="0"></use><use xlink:href="#8" y="0"></use></svg><svg x="4560"><use xlink:href="#a"></use><use xlink:href="#b" x="-0.0040000000000000036" y="2.146"></use><use xlink:href="#8" y="0"></use></svg><svg x="4640"><use xlink:href="#a"></use><use xlink:href="#8" y="0"></use></svg><svg x="4720"><use xlink:href="#a"></use><use xlink:href="#8" y="0"></use><text font-size="1.67" x="1.002" y="3.8409999999999997" class="d">■</text><text font-size="1.67" x="36.071999999999996" y="3.8409999999999997" class="c">0%</text><text font-size="1.67" x="39.077999999999996" y="3.8409999999999997" class="c">|</text><text font-size="1.67" x="42.083999999999996" y="3.8409999999999997" class="c">ETA:</text><text font-size="1.67" x="47.093999999999994" y="3.8409999999999997" class="c">?</text></svg><svg x="4800"><use xlink:href="#a"></use><use xlink:href="#8" y="0"></use><text font-size="1.67" x="1.002" y="3.8409999999999997" class="d">■■</text><text font-size="1.67" x="36.071999999999996" y="3.8409999999999997" class="c">2%</text><text font-size="1.67" x="39.077999999999996" y="3.8409999999999997" class="c">|</text><text font-size="1.67" x="42.083999999999996" y="3.8409999999999997" class="c">ETA:</text><text font-size="1.67" x="48.096" y="3.8409999999999997" class="c">7s</text></svg><svg x="4880"><use xlink:href="#a"></use><use xlink:href="#8" y="0"></use><text font-size="1.67" x="1.002" y="3.8409999999999997" class="d">■■■</text><text font-size="1.67" x="36.071999999999996" y="3.8409999999999997" class="c">5%</text><text font-size="1.67" x="39.077999999999996" y="3.8409999999999997" class="c">|</text><text font-size="1.67" x="42.083999999999996" y="3.8409999999999997" class="c">ETA:</text><text font-size="1.67" x="48.096" y="3.8409999999999997" class="c">6s</text></svg><svg x="4960"><use xlink:href="#a"></use><use xlink:href="#8" y="0"></use><text font-size="1.67" x="1.002" y="3.8409999999999997" class="d">■■■■</text><text font-size="1.67" x="36.071999999999996" y="3.8409999999999997" class="c">8%</text><text font-size="1.67" x="39.077999999999996" y="3.8409999999999997" class="c">|</text><text font-size="1.67" x="42.083999999999996" y="3.8409999999999997" class="c">ETA:</text><text font-size="1.67" x="48.096" y="3.8409999999999997" class="c">6s</text></svg><svg x="5040"><use xlink:href="#a"></use><use xlink:href="#8" y="0"></use><text font-size="1.67" x="1.002" y="3.8409999999999997" class="d">■■■■</text><text font-size="1.67" x="35.06999999999999" y="3.8409999999999997" class="c">12%</text><text font-size="1.67" x="39.077999999999996" y="3.8409999999999997" class="c">|</text><text font-size="1.67" x="42.083999999999996" y="3.8409999999999997" class="c">ETA:</text><text font-size="1.67" x="48.096" y="3.8409999999999997" class="c">6s</text></svg><svg x="5120"><use xlink:href="#a"></use><use xlink:href="#8" y="0"></use><text font-size="1.67" x="1.002" y="3.8409999999999997" class="d">■■■■■</text><text font-size="1.67" x="35.06999999999999" y="3.8409999999999997" class="c">15%</text><text font-size="1.67" x="39.077999999999996" y="3.8409999999999997" class="c">|</text><text font-size="1.67" x="42.083999999999996" y="3.8409999999999997" class="c">ETA:</text><text font-size="1.67" x="48.096" y="3.8409999999999997" class="c">6s</text></svg><svg x="5200"><use xlink:href="#a"></use><use xlink:href="#8" y="0"></use><text font-size="1.67" x="1.002" y="3.8409999999999997" class="d">■■■■■■</text><text font-size="1.67" x="35.06999999999999" y="3.8409999999999997" class="c">18%</text><text font-size="1.67" x="39.077999999999996" y="3.8409999999999997" class="c">|</text><text font-size="1.67" x="42.083999999999996" y="3.8409999999999997" class="c">ETA:</text><text font-size="1.67" x="48.096" y="3.8409999999999997" class="c">5s</text></svg><svg x="5280"><use xlink:href="#a"></use><use xlink:href="#8" y="0"></use><text font-size="1.67" x="1.002" y="3.8409999999999997" class="d">■■■■■■■</text><text font-size="1.67" x="35.06999999999999" y="3.8409999999999997" class="c">21%</text><text font-size="1.67" x="39.077999999999996" y="3.8409999999999997" class="c">|</text><text font-size="1.67" x="42.083999999999996" y="3.8409999999999997" class="c">ETA:</text><text font-size="1.67" x="48.096" y="3.8409999999999997" class="c">5s</text></svg><svg x="5360"><use xlink:href="#a"></use><use xlink:href="#8" y="0"></use><text font-size="1.67" x="1.002" y="3.8409999999999997" class="d">■■■■■■■■</text><text font-size="1.67" x="35.06999999999999" y="3.8409999999999997" class="c">25%</text><text font-size="1.67" x="39.077999999999996" y="3.8409999999999997" class="c">|</text><text font-size="1.67" x="42.083999999999996" y="3.8409999999999997" class="c">ETA:</text><text font-size="1.67" x="48.096" y="3.8409999999999997" class="c">5s</text></svg><svg x="5440"><use xlink:href="#a"></use><use xlink:href="#8" y="0"></use><text font-size="1.67" x="1.002" y="3.8409999999999997" class="d">■■■■■■■■■</text><text font-size="1.67" x="35.06999999999999" y="3.8409999999999997" class="c">28%</text><text font-size="1.67" x="39.077999999999996" y="3.8409999999999997" class="c">|</text><text font-size="1.67" x="42.083999999999996" y="3.8409999999999997" class="c">ETA:</text><text font-size="1.67" x="48.096" y="3.8409999999999997" class="c">5s</text></svg><svg x="5520"><use xlink:href="#a"></use><use xlink:href="#8" y="0"></use><text font-size="1.67" x="1.002" y="3.8409999999999997" class="d">■■■■■■■■■■</text><text font-size="1.67" x="35.06999999999999" y="3.8409999999999997" class="c">31%</text><text font-size="1.67" x="39.077999999999996" y="3.8409999999999997" class="c">|</text><text font-size="1.67" x="42.083999999999996" y="3.8409999999999997" class="c">ETA:</text><text font-size="1.67" x="48.096" y="3.8409999999999997" class="c">4s</text></svg><svg x="5600"><use xlink:href="#a"></use><use xlink:href="#8" y="0"></use><text font-size="1.67" x="1.002" y="3.8409999999999997" class="d">■■■■■■■■■■■</text><text font-size="1.67" x="35.06999999999999" y="3.8409999999999997" class="c">34%</text><text font-size="1.67" x="39.077999999999996" y="3.8409999999999997" class="c">|</text><text font-size="1.67" x="42.083999999999996" y="3.8409999999999997" class="c">ETA:</text><text font-size="1.67" x="48.096" y="3.8409999999999997" class="c">4s</text></svg><svg x="5680"><use xlink:href="#a"></use><use xlink:href="#8" y="0"></use><text font-size="1.67" x="1.002" y="3.8409999999999997" class="d">■■■■■■■■■■■■</text><text font-size="1.67" x="35.06999999999999" y="3.8409999999999997" class="c">38%</text><text font-size="1.67" x="39.077999999999996" y="3.8409999999999997" class="c">|</text><text font-size="1.67" x="42.083999999999996" y="3.8409999999999997" class="c">ETA:</text><text font-size="1.67" x="48.096" y="3.8409999999999997" class="c">4s</text></svg><svg x="5760"><use xlink:href="#a"></use><use xlink:href="#8" y="0"></use><text font-size="1.67" x="1.002" y="3.8409999999999997" class="d">■■■■■■■■■■■■■</text><text font-size="1.67" x="35.06999999999999" y="3.8409999999999997" class="c">41%</text><text font-size="1.67" x="39.077999999999996" y="3.8409999999999997" class="c">|</text><text font-size="1.67" x="42.083999999999996" y="3.8409999999999997" class="c">ETA:</text><text font-size="1.67" x="48.096" y="3.8409999999999997" class="c">4s</text></svg><svg x="5840"><use xlink:href="#a"></use><use xlink:href="#8" y="0"></use><text font-size="1.67" x="1.002" y="3.8409999999999997" class="d">■■■■■■■■■■■■■■</text><text font-size="1.67" x="35.06999999999999" y="3.8409999999999997" class="c">44%</text><text font-size="1.67" x="39.077999999999996" y="3.8409999999999997" class="c">|</text><text font-size="1.67" x="42.083999999999996" y="3.8409999999999997" class="c">ETA:</text><text font-size="1.67" x="48.096" y="3.8409999999999997" class="c">4s</text></svg><svg x="5920"><use xlink:href="#a"></use><use xlink:href="#8" y="0"></use><text font-size="1.67" x="1.002" y="3.8409999999999997" class="d">■■■■■■■■■■■■■■■</text><text font-size="1.67" x="35.06999999999999" y="3.8409999999999997" class="c">47%</text><text font-size="1.67" x="39.077999999999996" y="3.8409999999999997" class="c">|</text><text font-size="1.67" x="42.083999999999996" y="3.8409999999999997" class="c">ETA:</text><text font-size="1.67" x="48.096" y="3.8409999999999997" class="c">3s</text></svg><svg x="6000"><use xlink:href="#a"></use><use xlink:href="#8" y="0"></use><text font-size="1.67" x="1.002" y="3.8409999999999997" class="d">■■■■■■■■■■■■■■■■</text><text font-size="1.67" x="35.06999999999999" y="3.8409999999999997" class="c">51%</text><text font-size="1.67" x="39.077999999999996" y="3.8409999999999997" class="c">|</text><text font-size="1.67" x="42.083999999999996" y="3.8409999999999997" class="c">ETA:</text><text font-size="1.67" x="48.096" y="3.8409999999999997" class="c">3s</text></svg><svg x="6080"><use xlink:href="#a"></use><use xlink:href="#8" y="0"></use><text font-size="1.67" x="1.002" y="3.8409999999999997" class="d">■■■■■■■■■■■■■■■■■</text><text font-size="1.67" x="35.06999999999999" y="3.8409999999999997" class="c">54%</text><text font-size="1.67" x="39.077999999999996" y="3.8409999999999997" class="c">|</text><text font-size="1.67" x="42.083999999999996" y="3.8409999999999997" class="c">ETA:</text><text font-size="1.67" x="48.096" y="3.8409999999999997" class="c">3s</text></svg><svg x="6160"><use xlink:href="#a"></use><use xlink:href="#8" y="0"></use><text font-size="1.67" x="1.002" y="3.8409999999999997" class="d">■■■■■■■■■■■■■■■■■■</text><text font-size="1.67" x="35.06999999999999" y="3.8409999999999997" class="c">57%</text><text font-size="1.67" x="39.077999999999996" y="3.8409999999999997" class="c">|</text><text font-size="1.67" x="42.083999999999996" y="3.8409999999999997" class="c">ETA:</text><text font-size="1.67" x="48.096" y="3.8409999999999997" class="c">3s</text></svg><svg x="6240"><use xlink:href="#a"></use><use xlink:href="#8" y="0"></use><text font-size="1.67" x="1.002" y="3.8409999999999997" class="d">■■■■■■■■■■■■■■■■■■■</text><text font-size="1.67" x="35.06999999999999" y="3.8409999999999997" class="c">60%</text><text font-size="1.67" x="39.077999999999996" y="3.8409999999999997" class="c">|</text><text font-size="1.67" x="42.083999999999996" y="3.8409999999999997" class="c">ETA:</text><text font-size="1.67" x="48.096" y="3.8409999999999997" class="c">3s</text></svg><svg x="6320"><use xlink:href="#a"></use><use xlink:href="#8" y="0"></use><text font-size="1.67" x="1.002" y="3.8409999999999997" class="d">■■■■■■■■■■■■■■■■■■■■</text><text font-size="1.67" x="35.06999999999999" y="3.8409999999999997" class="c">63%</text><text font-size="1.67" x="39.077999999999996" y="3.8409999999999997" class="c">|</text><text font-size="1.67" x="42.083999999999996" y="3.8409999999999997" class="c">ETA:</text><text font-size="1.67" x="48.096" y="3.8409999999999997" class="c">2s</text></svg><svg x="6400"><use xlink:href="#a"></use><use xlink:href="#8" y="0"></use><text font-size="1.67" x="1.002" y="3.8409999999999997" class="d">■■■■■■■■■■■■■■■■■■■■■</text><text font-size="1.67" x="35.06999999999999" y="3.8409999999999997" class="c">67%</text><text font-size="1.67" x="39.077999999999996" y="3.8409999999999997" class="c">|</text><text font-size="1.67" x="42.083999999999996" y="3.8409999999999997" class="c">ETA:</text><text font-size="1.67" x="48.096" y="3.8409999999999997" class="c">2s</text></svg><svg x="6480"><use xlink:href="#a"></use><use xlink:href="#8" y="0"></use><text font-size="1.67" x="1.002" y="3.8409999999999997" class="d">■■■■■■■■■■■■■■■■■■■■■■</text><text font-size="1.67" x="35.06999999999999" y="3.8409999999999997" class="c">70%</text><text font-size="1.67" x="39.077999999999996" y="3.8409999999999997" class="c">|</text><text font-size="1.67" x="42.083999999999996" y="3.8409999999999997" class="c">ETA:</text><text font-size="1.67" x="48.096" y="3.8409999999999997" class="c">2s</text></svg><svg x="6560"><use xlink:href="#a"></use><use xlink:href="#8" y="0"></use><text font-size="1.67" x="1.002" y="3.8409999999999997" class="d">■■■■■■■■■■■■■■■■■■■■■■■</text><text font-size="1.67" x="35.06999999999999" y="3.8409999999999997" class="c">73%</text><text font-size="1.67" x="39.077999999999996" y="3.8409999999999997" class="c">|</text><text font-size="1.67" x="42.083999999999996" y="3.8409999999999997" class="c">ETA:</text><text font-size="1.67" x="48.096" y="3.8409999999999997" class="c">2s</text></svg><svg x="6640"><use xlink:href="#a"></use><use xlink:href="#8" y="0"></use><text font-size="1.67" x="1.002" y="3.8409999999999997" class="d">■■■■■■■■■■■■■■■■■■■■■■■■</text><text font-size="1.67" x="35.06999999999999" y="3.8409999999999997" class="c">76%</text><text font-size="1.67" x="39.077999999999996" y="3.8409999999999997" class="c">|</text><text font-size="1.67" x="42.083999999999996" y="3.8409999999999997" class="c">ETA:</text><text font-size="1.67" x="48.096" y="3.8409999999999997" class="c">1s</text></svg><svg x="6720"><use xlink:href="#a"></use><use xlink:href="#8" y="0"></use><text font-size="1.67" x="1.002" y="3.8409999999999997" class="d">■■■■■■■■■■■■■■■■■■■■■■■■■</text><text font-size="1.67" x="35.06999999999999" y="3.8409999999999997" class="c">80%</text><text font-size="1.67" x="39.077999999999996" y="3.8409999999999997" class="c">|</text><text font-size="1.67" x="42.083999999999996" y="3.8409999999999997" class="c">ETA:</text><text font-size="1.67" x="48.096" y="3.8409999999999997" class="c">1s</text></svg><svg x="6800"><use xlink:href="#a"></use><use xlink:href="#8" y="0"></use><text font-size="1.67" x="1.002" y="3.8409999999999997" class="d">■■■■■■■■■■■■■■■■■■■■■■■■■■</text><text font-size="1.67" x="35.06999999999999" y="3.8409999999999997" class="c">83%</text><text font-size="1.67" x="39.077999999999996" y="3.8409999999999997" class="c">|</text><text font-size="1.67" x="42.083999999999996" y="3.8409999999999997" class="c">ETA:</text><text font-size="1.67" x="48.096" y="3.8409999999999997" class="c">1s</text></svg><svg x="6880"><use xlink:href="#a"></use><use xlink:href="#8" y="0"></use><text font-size="1.67" x="1.002" y="3.8409999999999997" class="d">■■■■■■■■■■■■■■■■■■■■■■■■■■■</text><text font-size="1.67" x="35.06999999999999" y="3.8409999999999997" class="c">86%</text><text font-size="1.67" x="39.077999999999996" y="3.8409999999999997" class="c">|</text><text font-size="1.67" x="42.083999999999996" y="3.8409999999999997" class="c">ETA:</text><text font-size="1.67" x="48.096" y="3.8409999999999997" class="c">1s</text></svg><svg x="6960"><use xlink:href="#a"></use><use xlink:href="#8" y="0"></use><text font-size="1.67" x="1.002" y="3.8409999999999997" class="d">■■■■■■■■■■■■■■■■■■■■■■■■■■■■</text><text font-size="1.67" x="35.06999999999999" y="3.8409999999999997" class="c">90%</text><text font-size="1.67" x="39.077999999999996" y="3.8409999999999997" class="c">|</text><text font-size="1.67" x="42.083999999999996" y="3.8409999999999997" class="c">ETA:</text><text font-size="1.67" x="48.096" y="3.8409999999999997" class="c">1s</text></svg><svg x="7040"><use xlink:href="#a"></use><use xlink:href="#8" y="0"></use><text font-size="1.67" x="1.002" y="3.8409999999999997" class="d">■■■■■■■■■■■■■■■■■■■■■■■■■■■■■</text><text font-size="1.67" x="35.06999999999999" y="3.8409999999999997" class="c">93%</text><text font-size="1.67" x="39.077999999999996" y="3.8409999999999997" class="c">|</text><text font-size="1.67" x="42.083999999999996" y="3.8409999999999997" class="c">ETA:</text><text font-size="1.67" x="48.096" y="3.8409999999999997" class="c">0s</text></svg><svg x="7120"><use xlink:href="#a"></use><use xlink:href="#8" y="0"></use><text font-size="1.67" x="1.002" y="3.8409999999999997" class="d">■■■■■■■■■■■■■■■■■■■■■■■■■■■■■■</text><text font-size="1.67" x="35.06999999999999" y="3.8409999999999997" class="c">96%</text><text font-size="1.67" x="39.077999999999996" y="3.8409999999999997" class="c">|</text><text font-size="1.67" x="42.083999999999996" y="3.8409999999999997" class="c">ETA:</text><text font-size="1.67" x="48.096" y="3.8409999999999997" class="c">0s</text></svg><svg x="7200"><use xlink:href="#a"></use><use xlink:href="#8" y="0"></use><text font-size="1.67" x="1.002" y="3.8409999999999997" class="d">■■■■■■■■■■■■■■■■■■■■■■■■■■■■■■■</text><text font-size="1.67" x="35.06999999999999" y="3.8409999999999997" class="c">99%</text><text font-size="1.67" x="39.077999999999996" y="3.8409999999999997" class="c">|</text><text font-size="1.67" x="42.083999999999996" y="3.8409999999999997" class="c">ETA:</text><text font-size="1.67" x="48.096" y="3.8409999999999997" class="c">0s</text></svg><svg x="7280"><use xlink:href="#a"></use><use xlink:href="#8" y="0"></use><use xlink:href="#9" y="2.171"></use></svg><svg x="7360"><use xlink:href="#a"></use><use xlink:href="#8" y="0"></use><use xlink:href="#9" y="2.171"></use></svg><svg x="7440"><use xlink:href="#a"></use><use xlink:href="#8" y="0"></use><use xlink:href="#9" y="2.171"></use></svg><svg x="7520"><use xlink:href="#a"></use><use xlink:href="#8" y="0"></use><use xlink:href="#9" y="2.171"></use></svg></svg></g></g></svg></svg>